<?xml version="1.0" encoding="UTF-8" standalone="no"?>
<!-- Created with Inkscape (http://www.inkscape.org/) -->

<svg
   version="1.1"
   id="svg48"
   width="636.89594"
   height="493.3165"
   viewBox="0 0 636.89594 493.3165"
   sodipodi:docname="logo_source.svg"
   inkscape:version="1.2.2 (b0a8486541, 2022-12-01)"
   xmlns:inkscape="http://www.inkscape.org/namespaces/inkscape"
   xmlns:sodipodi="http://sodipodi.sourceforge.net/DTD/sodipodi-0.dtd"
   xmlns="http://www.w3.org/2000/svg"
   xmlns:svg="http://www.w3.org/2000/svg">
  <defs
     id="defs52" />
  <sodipodi:namedview
     id="namedview50"
     pagecolor="#ffffff"
     bordercolor="#000000"
     borderopacity="0.25"
     inkscape:showpageshadow="2"
     inkscape:pageopacity="0.0"
     inkscape:pagecheckerboard="0"
     inkscape:deskcolor="#d1d1d1"
     showgrid="false"
     inkscape:zoom="0.91210938"
     inkscape:cx="366.18415"
     inkscape:cy="300.95075"
     inkscape:window-width="2048"
     inkscape:window-height="1080"
     inkscape:window-x="1080"
     inkscape:window-y="214"
     inkscape:window-maximized="1"
     inkscape:current-layer="g54" />
  <g
     inkscape:groupmode="layer"
     inkscape:label="Image"
     id="g54"
     transform="translate(-217.23427,-211.37277)">
    <path
       style="fill:#000000"
       d="m 349.13022,703.36767 c 0,-1.4147 0.47358,-9.18151 1.0524,-17.25958 3.93975,-54.98325 18.28282,-100.90346 44.38674,-142.10684 1.53994,-2.4307 10.22963,-14.99507 19.31043,-27.92083 21.8437,-31.0927 28.03169,-40.93695 36.24426,-57.65972 11.5449,-23.50821 17.14222,-43.46901 18.98052,-67.68703 2.05996,-27.13835 -4.05384,-48.27275 -18.40131,-63.61024 -12.53252,-13.39731 -27.00744,-20.17708 -43.07304,-20.17457 -18.00528,0.003 -31.03362,5.38502 -43.64648,18.03107 -8.46254,8.48479 -13.39032,17.27949 -16.25169,29.00466 -3.20767,13.14424 -1.26273,31.83965 4.48437,43.10519 2.68166,5.25661 16.53812,26.10876 22.72957,34.20502 3.51261,4.59326 4.18598,6.04607 3.08817,6.66277 -7.44311,4.18123 -28.71072,21.56467 -38.97563,31.85738 -41.50709,41.61952 -51.9076,85.85098 -34.42088,146.38563 1.78303,6.17239 1.98654,7.7219 0.81695,6.22012 -2.73296,-3.50917 -14.08257,-27.69002 -17.16868,-36.57863 -8.35225,-24.05617 -13.13828,-61.77808 -13.15105,-103.65232 -0.005,-14.97043 -0.0431,-15.23996 -2.25465,-15.75812 -1.2375,-0.28995 -13.42607,-2.93709 -27.08572,-5.88255 -26.62988,-5.74225 -29.55097,-6.95941 -28.33445,-11.80639 0.33783,-1.34601 11.92577,-13.093 26.9708,-27.34098 14.50817,-13.73955 27.38883,-26.41453 28.6237,-28.1666 1.50692,-2.13808 2.52682,-5.59077 3.10162,-10.5 4.44842,-37.99263 5.99866,-46.85125 11.07991,-63.31441 8.82914,-28.60622 22.11106,-50.96283 40.8981,-68.84113 50.44835,-48.00815 133.13261,-52.42023 197.01402,-10.51279 12.02866,7.89104 31.6011,27.18494 38.90763,38.35392 5.39702,8.25006 16.46249,30.01982 17.575,34.57635 0.61568,2.52163 0.43119,2.62428 -8.68578,4.83288 -11.96644,2.89888 -22.3045,7.85324 -28.44698,13.63279 l -4.86785,4.58022 6.5,-0.60868 c 3.575,-0.33477 19.60593,-2.38727 35.62429,-4.56112 16.01836,-2.17384 29.57744,-3.95244 30.13129,-3.95244 0.55384,0 1.54512,-2.1375 2.20282,-4.75 3.50031,-13.90363 15.14795,-28.27909 28.0416,-34.6088 16.80901,-8.25182 32.93397,-8.42438 48.93784,-0.5237 33.46554,16.52104 41.69779,60.44507 16.3159,87.05532 -7.06445,7.40634 -12.77237,11.01981 -22.75374,14.40452 -10.57091,3.58462 -22.75751,3.82829 -33.04153,0.66064 -12.24456,-3.77152 -25.1037,-13.65736 -31.12107,-23.92522 l -2.604,-4.4434 -6.1167,0.57847 c -3.36419,0.31816 -13.3167,1.02554 -22.1167,1.57195 -28.55286,1.7729 -45.35292,7.53767 -61.71403,21.17654 -18.8843,15.74223 -31.33108,45.91158 -33.415,80.99353 l -0.67184,11.31015 6.90043,-6.90686 c 13.82621,-13.83908 27.0292,-22.90824 41.01244,-28.17152 14.8196,-5.57808 10.83157,-5.42162 138.19128,-5.42162 h 117.67252 l -15.2379,-15.26173 c -14.17762,-14.19978 -15.2379,-15.52024 -15.2379,-18.97694 0,-5.96917 2.55548,-7.00557 16.26987,-6.59843 l 11.35506,0.3371 5.531,5 c 17.23059,15.57638 53.84407,50.01652 53.84407,50.64794 0,0.93046 -55.42924,49.91456 -58.35156,51.56662 -2.60005,1.46987 -21.40002,1.71059 -25.05541,0.32081 -2.77904,-1.05659 -4.15694,-4.65245 -3.21732,-8.39617 0.32589,-1.29845 7.01217,-8.34244 14.85841,-15.65332 7.84623,-7.31087 14.41885,-13.68242 14.60581,-14.15899 0.19091,-0.48661 -51.97877,-0.7482 -119,-0.59668 l -119.33993,0.26979 -8,2.72499 c -15.23952,5.19094 -32.00584,17.41487 -41.4619,30.22887 -3.43996,4.66154 -24.0381,38.99911 -24.0381,40.07207 0,0.26074 38.3625,0.45921 85.25,0.44106 l 85.25,-0.033 4.15708,-8.71698 c 4.28489,-8.98498 11.31602,-17.14387 19.62183,-22.76907 11.67166,-7.90476 30.93675,-10.6892 44.87437,-6.48581 18.72697,5.64778 31.5967,18.16291 37.36912,36.33951 7.47216,23.52884 -1.89208,49.15413 -22.98087,62.88727 -16.47629,10.72944 -40.1226,11.16343 -57.5269,1.05582 -10.25419,-5.95515 -19.72395,-17.4613 -23.49028,-28.54167 l -1.93852,-5.70306 h -90.97903 c -102.22699,0 -96.43313,-0.38751 -113.45832,7.58837 -12.13682,5.6858 -20.65438,11.79781 -31.15653,22.3572 -9.53545,9.58743 -16.38484,19.27817 -21.39257,30.26692 -3.37405,7.40385 -7.34605,21.37417 -6.35798,22.36225 0.28827,0.28826 2.26438,-0.66615 4.39136,-2.12092 10.00574,-6.8435 25.67008,-13.41262 39.85883,-16.7155 8.517,-1.9826 12.34342,-2.11753 70.14497,-2.47346 l 61.13656,-0.37648 -15.39492,-15.19419 c -14.35362,-14.16648 -15.39435,-15.444 -15.38656,-18.88749 0.0131,-5.79081 2.32872,-6.80797 15.48087,-6.80011 8.81821,0.005 11.54819,0.35587 13.62653,1.75 2.5927,1.73916 13.19267,11.47181 43.14622,39.61585 l 15.82865,14.87244 -4.27804,3.62756 c -2.35292,1.99516 -14.40705,12.63136 -26.78695,23.63599 -12.37991,11.00464 -24.00595,21.24214 -25.83565,22.75 -3.1918,2.63038 -3.78455,2.74157 -14.61514,2.74157 -9.90599,0 -11.61109,-0.25382 -13.92327,-2.07258 -1.83,-1.43948 -2.63486,-3.01568 -2.63486,-5.16 0,-3.29538 0.23003,-3.55048 21.27738,-23.59548 l 9.77738,-9.31175 -59.77738,0.39513 c -66.81196,0.44163 -67.73561,0.52139 -89.37666,7.71794 -21.12894,7.02624 -42.91232,19.65926 -61.15072,35.46363 -8.10029,7.01926 -8.75,7.39127 -8.75,5.01008 z M 721.90934,576.03338 c 8.93029,-4.55589 15.08531,-16.16611 13.89561,-26.2113 -1.65842,-14.00274 -16.05241,-25.41465 -29.52137,-23.40526 -9.91062,1.47853 -16.29918,6.06247 -20.91067,15.00388 -4.58092,8.88215 -2.76298,22.02884 4.05616,29.33271 7.96005,8.52587 21.73007,10.76432 32.48027,5.27997 z M 294.63022,437.37784 c 19.25,-2.49776 40.37971,-5.21463 46.95492,-6.03751 6.5752,-0.82287 12.16514,-1.70636 12.42209,-1.9633 0.25694,-0.25695 -3.3096,-4.40223 -7.92564,-9.21175 -22.275,-23.20861 -32.18992,-33.24458 -32.84357,-33.24458 -0.39351,0 -2.26624,1.61712 -4.16163,3.5936 -1.89539,1.97648 -13.55581,12.88898 -25.91204,24.25 -12.35622,11.36102 -24.28122,22.3591 -26.5,24.44019 l -4.03413,3.78378 3.5,-0.53453 c 1.925,-0.29399 19.25,-2.57815 38.5,-5.0759 z M 677.6956,361.03029 c 10.38103,-4.71505 15.86498,-13.22653 15.8737,-24.6371 0.005,-5.99862 -0.44477,-7.82872 -3.06913,-12.5 -9.17578,-16.33254 -30.2233,-18.87801 -42.59722,-5.15169 -4.98139,5.52583 -6.94386,10.4553 -7.03827,17.6792 -0.1356,10.37634 6.17489,20.28399 15.66442,24.59359 5.47538,2.48659 15.71,2.49433 21.1665,0.016 z m -283.36933,30.04964 c -12.86895,-4.58188 -19.15372,-18.12267 -14.60605,-31.46934 1.90893,-5.60241 9.73542,-13.13051 15.24064,-14.65957 7.00946,-1.94688 16.37394,-0.64989 21.10941,2.92365 l 2.44006,1.84135 -2.67158,-0.51071 c -4.2878,-0.81966 -7.5542,0.51628 -9.24187,3.77986 -4.14647,8.01838 5.65759,14.90219 12.07879,8.48098 2.67805,-2.67804 3.25198,-7.23736 1.20455,-9.56892 -0.6875,-0.7829 -0.17395,-0.5354 1.14123,0.55 5.37368,4.43486 7.56354,14.88584 4.94821,23.61503 -3.73928,12.4806 -18.75447,19.60667 -31.64339,15.01767 z"
       id="path339" />
  </g>
</svg>
