<?xml version="1.0" encoding="UTF-8"?>
<svg height="16px" viewBox="0 0 16 16" width="16px" xmlns="http://www.w3.org/2000/svg">
    <g fill="none" stroke="#2e3436" stroke-width="2.1" stroke-linecap="round" stroke-linejoin="round">
        <path d="M 8 2.6 C 7 1.3 4.6 1.5 4.1 3.4 C 2.4 3.6 1.5 5.6 2.6 7 C 1.3 8.4 2 10.6 3.8 10.9 C 3.9 12.8 6.4 13.7 8 12.2"/>
        <path d="M 8 2.6 C 9 1.3 11.4 1.5 11.9 3.4 C 13.6 3.6 14.5 5.6 13.4 7 C 14.7 8.4 14 10.6 12.2 10.9 C 12.1 12.8 9.6 13.7 8 12.2"/>
        <path d="M 8 2.6 V 14.6"/>
        <path d="M 2.6 7 C 4.2 6.9 5.2 7.9 5.4 9.4 M 13.4 7 C 11.8 6.9 10.8 7.9 10.6 9.4"/>
    </g>
</svg>
